<svg viewBox="0 0 128 128" fill="none" xmlns="http://www.w3.org/2000/svg">
  <rect width="128" height="128" rx="4" fill="white" />
  <rect width="128" height="128" rx="4" fill="url(#paint0_linear)" />
  <rect width="128" height="128" rx="4" fill="url(#paint1_linear)" fill-opacity="0.4" style="mix-blend-mode:overlay" />
  <path fill-rule="evenodd" clip-rule="evenodd"
    d="M106.629 40.5167C114.847 44.7802 120.434 55.0389 119.973 66.6655C119.516 78.1592 113.281 87.6098 104.901 90.9687C110.912 85.8718 115.075 76.8909 115.487 66.4488C115.906 55.8486 112.35 46.2873 106.629 40.5167ZM12.4924 65.8495C12.6152 76.464 16.6588 85.7279 22.67 91.0367C14.2464 87.4263 8.14426 77.6263 8.00235 65.9871C7.86682 54.4807 13.5974 44.5573 21.7819 40.5452C16.0609 46.1102 12.3617 55.3963 12.4924 65.8495ZM101.116 72.1609C101.116 47.1065 84.6461 26.7995 64.3371 26.7995C44.0266 26.7995 27.5651 47.1065 27.5667 72.1609C27.5667 78.7491 28.7163 85.0036 30.7652 90.6524C27.3801 83.5313 25.4253 75.2494 25.4253 66.3982C25.4253 39.8905 42.8466 18.4006 64.3371 18.4006C85.8292 18.4006 103.252 39.8905 103.252 66.3982C103.252 75.2494 101.304 83.5361 97.9122 90.6524C99.9675 85.0036 101.116 78.7491 101.116 72.1609ZM21.0564 63.9992C21.0564 90.3014 38.3502 111.627 59.6716 111.627C60.3908 111.627 61.1099 111.598 61.8242 111.551C60.1038 111.839 58.3418 112 56.5576 112C35.0656 112 17.6458 90.5101 17.6458 63.9992C17.6458 37.4899 35.0655 16 56.5592 16C58.3434 16 60.1037 16.1629 61.8258 16.4539C61.1099 16.4048 60.3924 16.3748 59.6732 16.3748C38.3502 16.3748 21.0564 37.6939 21.0564 63.9992ZM107.439 63.9992C107.439 37.6939 90.155 16.3748 68.8288 16.3748C68.1065 16.3748 67.3874 16.4048 66.6762 16.4539C68.3999 16.1629 70.1554 16 71.946 16C93.4365 16 110.855 37.4899 110.855 63.9992C110.855 90.5101 93.4365 112 71.946 112C70.1554 112 68.3999 111.839 66.6746 111.551C67.3858 111.598 68.1049 111.627 68.8272 111.627C90.155 111.627 107.439 90.3014 107.439 63.9992ZM64.1553 91.1142C73.5867 91.1142 81.6468 87.3757 84.9171 82.0922C82.5445 88.4685 74.1496 93.1859 64.1553 93.1859C54.1515 93.1859 45.7566 88.4669 43.3904 82.0922C46.6575 87.3757 54.716 91.1142 64.1553 91.1142Z"
    fill="white" />
    <linearGradient id="paint0_linear" x1="64" y1="0" x2="64" y2="128" gradientUnits="userSpaceOnUse">
      <stop stop-color="#D61414" />
      <stop offset="0.0666667" stop-color="#D51313" />
      <stop offset="0.133333" stop-color="#D51313" />
      <stop offset="0.2" stop-color="#D41212" />
      <stop offset="0.266667" stop-color="#D31111" />
      <stop offset="0.333333" stop-color="#D10F0F" />
      <stop offset="0.4" stop-color="#CF0D0D" />
      <stop offset="0.466667" stop-color="#CC0B0B" />
      <stop offset="0.533333" stop-color="#CA0909" />
      <stop offset="0.6" stop-color="#C80606" />
      <stop offset="0.666667" stop-color="#C60505" />
      <stop offset="0.733333" stop-color="#C40303" />
      <stop offset="0.8" stop-color="#C30202" />
      <stop offset="0.866667" stop-color="#C20101" />
      <stop offset="0.933333" stop-color="#C10000" />
      <stop offset="1" stop-color="#C10000" />
    </linearGradient>
    <linearGradient id="paint1_linear" x1="2.5" y1="1.875" x2="127.5" y2="127" gradientUnits="userSpaceOnUse">
      <stop stop-color="white" />
      <stop offset="1" stop-color="white" stop-opacity="0" />
    </linearGradient>
</svg>